<svg id="svg" version="1.1" xmlns="http://www.w3.org/2000/svg" xmlns:xlink="http://www.w3.org/1999/xlink" width="400" height="552.7065527065528" viewBox="0, 0, 400,552.7065527065528"><g id="svgg"><path id="path0" d="M200.200 219.404 C 194.040 219.672,187.380 220.088,185.400 220.328 C 183.420 220.568,179.100 221.053,175.800 221.408 C 157.276 223.396,137.707 228.828,116.479 237.874 C 96.267 246.487,78.880 262.693,73.776 277.676 C 65.026 303.359,91.793 332.686,136.400 346.292 C 139.590 347.265,143.910 348.580,146.000 349.214 C 169.844 356.449,216.009 359.529,245.000 355.819 C 247.420 355.510,251.200 355.045,253.400 354.786 C 264.632 353.464,287.985 347.860,297.000 344.322 C 341.369 326.910,361.083 303.562,353.339 277.600 C 347.049 256.515,323.089 239.877,280.200 226.810 C 276.430 225.661,258.778 222.206,253.800 221.643 C 251.600 221.394,247.370 220.913,244.400 220.575 C 239.839 220.055,214.682 218.722,212.200 218.869 C 211.760 218.894,206.360 219.135,200.200 219.404 M181.672 278.311 C 182.978 279.619,181.564 280.194,176.757 280.309 C 171.468 280.434,171.200 280.603,171.200 283.796 C 171.200 286.558,171.546 286.800,175.506 286.800 C 178.988 286.800,180.400 287.211,180.400 288.224 C 180.400 289.138,178.661 289.600,175.223 289.600 C 171.351 289.600,171.265 289.696,171.117 294.179 C 170.990 298.014,170.379 299.144,169.034 298.028 C 167.859 297.053,168.105 278.498,169.300 277.997 C 170.671 277.423,181.049 277.686,181.672 278.311 M235.861 279.500 C 235.733 279.885,235.128 281.550,234.516 283.200 C 232.890 287.581,232.907 294.387,234.555 298.800 C 236.154 303.081,236.179 303.200,235.488 303.200 C 235.156 303.200,234.317 302.318,233.625 301.239 C 229.618 294.995,229.539 287.277,233.417 281.100 C 234.773 278.941,236.400 277.876,235.861 279.500 M257.332 280.100 C 261.811 286.082,262.047 294.859,257.896 301.057 C 256.600 302.992,254.739 304.097,255.396 302.541 C 258.996 294.014,259.198 288.235,256.141 281.250 C 254.839 278.276,255.494 277.644,257.332 280.100 M187.520 284.080 C 187.837 284.397,188.002 286.127,188.006 289.180 C 188.013 294.652,188.393 295.740,190.364 295.929 C 193.898 296.269,194.475 295.337,194.772 288.804 C 194.979 284.280,195.073 283.795,195.774 283.661 C 197.296 283.370,197.600 284.592,197.600 291.000 C 197.600 298.139,197.339 298.906,195.271 297.837 C 194.122 297.243,193.887 297.238,192.820 297.790 C 190.582 298.947,187.602 298.280,186.224 296.313 C 185.405 295.144,185.296 284.189,186.100 283.865 C 186.882 283.549,187.008 283.568,187.520 284.080 M210.841 284.514 C 213.583 286.357,214.414 298.400,211.800 298.400 C 210.744 298.400,210.400 296.881,210.400 292.226 C 210.400 286.925,209.959 286.000,207.433 286.000 C 204.330 286.000,203.602 287.229,203.595 292.480 C 203.588 297.170,203.362 298.080,202.248 297.921 C 201.422 297.803,201.400 297.623,201.400 291.000 L 201.400 284.200 203.667 284.200 C 204.913 284.200,206.068 284.065,206.233 283.900 C 206.865 283.268,209.513 283.621,210.841 284.514 M225.326 284.050 C 226.739 284.778,228.000 286.087,228.000 286.827 C 228.000 287.949,226.970 288.010,225.562 286.972 C 222.186 284.481,219.128 286.203,218.871 290.740 C 218.585 295.799,222.261 297.861,225.655 294.546 C 227.908 292.347,229.245 293.210,227.646 295.832 C 225.325 299.638,219.061 299.037,216.871 294.798 C 213.751 288.760,219.725 281.165,225.326 284.050 M241.125 283.945 C 241.413 284.128,242.355 286.222,243.218 288.599 C 245.303 294.344,245.708 294.542,247.169 290.528 C 247.635 289.247,248.298 287.432,248.644 286.493 C 249.622 283.834,251.185 282.760,251.526 284.514 C 251.647 285.140,246.646 298.798,245.460 301.076 C 244.487 302.948,243.017 304.076,241.742 303.931 C 240.156 303.749,239.887 302.144,241.380 301.769 C 244.557 300.972,244.587 299.256,241.564 291.234 C 239.598 286.017,239.221 284.656,239.613 284.185 C 240.168 283.516,240.392 283.480,241.125 283.945 " stroke="none" fill="#fafa6c" fill-rule="evenodd"></path><path id="path1" d="M328.156 9.575 C 326.266 10.376,326.635 12.814,328.869 14.293 C 330.908 15.643,330.723 16.326,327.922 17.792 C 325.552 19.032,324.800 20.043,324.800 21.986 C 324.800 23.760,325.155 24.330,327.084 25.658 C 329.160 27.086,329.110 27.192,325.522 28.958 C 320.811 31.278,320.397 34.843,324.601 36.885 C 326.936 38.020,326.791 38.282,323.045 39.708 C 317.450 41.838,316.880 46.760,322.056 48.245 C 324.324 48.895,323.840 49.499,320.126 50.654 C 316.032 51.927,314.400 53.225,314.400 55.209 C 314.400 56.762,316.630 59.197,318.060 59.206 C 321.455 59.228,320.350 60.926,316.440 61.696 C 311.077 62.753,309.067 64.572,310.032 67.496 C 310.465 68.808,313.484 70.783,315.076 70.796 C 317.867 70.819,314.921 72.430,311.357 72.830 C 307.075 73.310,304.000 75.166,304.000 77.270 C 304.000 79.507,305.996 81.189,308.680 81.214 C 309.516 81.222,310.643 81.474,311.185 81.773 L 312.169 82.319 310.760 82.907 C 309.985 83.231,307.742 83.704,305.776 83.958 C 303.809 84.212,301.596 84.497,300.858 84.592 C 295.080 85.331,295.464 91.434,301.348 92.392 C 304.328 92.876,305.805 93.811,304.133 94.154 C 301.908 94.609,297.746 95.140,294.374 95.398 C 285.049 96.111,284.496 103.600,293.768 103.600 C 296.515 103.600,298.400 104.188,298.400 105.046 C 298.400 105.763,296.866 105.943,288.800 106.174 C 278.015 106.483,275.947 106.994,274.549 109.699 C 272.994 112.706,277.579 115.182,284.744 115.206 C 286.636 115.212,288.005 115.728,287.492 116.241 C 286.860 116.874,282.955 117.153,274.446 117.176 C 269.522 117.189,264.842 117.373,264.046 117.585 C 263.251 117.797,261.742 118.078,260.693 118.211 C 255.613 118.851,255.009 125.200,260.027 125.200 C 260.883 125.200,262.262 125.457,263.092 125.771 C 264.044 126.131,267.326 126.463,272.000 126.671 C 285.235 127.260,280.276 127.882,259.800 128.202 C 249.900 128.356,241.670 128.562,241.511 128.658 C 241.352 128.755,239.668 129.010,237.768 129.226 C 232.649 129.808,230.835 131.361,232.198 133.996 C 233.381 136.283,234.323 136.573,241.581 136.881 C 251.055 137.283,259.194 137.860,259.484 138.150 C 260.145 138.811,258.201 138.936,244.904 139.085 C 237.037 139.174,229.970 139.415,229.200 139.621 C 228.430 139.827,222.850 139.999,216.800 140.003 C 201.521 140.012,198.119 141.113,200.079 145.413 C 201.155 147.776,202.426 148.000,214.759 148.000 C 223.659 148.000,226.508 148.132,228.675 148.645 C 230.769 149.140,232.559 149.237,236.405 149.062 C 239.158 148.937,241.668 148.995,241.984 149.190 C 242.967 149.797,240.999 150.028,235.400 149.961 C 228.820 149.883,192.299 150.669,180.400 151.144 C 175.450 151.342,170.261 151.526,168.869 151.552 C 164.987 151.626,162.715 154.490,164.550 156.999 C 166.031 159.025,168.359 159.336,184.000 159.596 C 192.030 159.730,198.645 159.875,198.700 159.920 C 200.204 161.129,197.267 161.320,172.200 161.646 C 158.780 161.821,145.460 162.134,142.600 162.342 C 139.740 162.550,136.638 162.738,135.706 162.760 C 130.151 162.891,130.029 169.600,135.582 169.600 C 136.706 169.600,138.272 169.870,139.062 170.200 C 140.208 170.679,142.523 170.800,150.549 170.802 C 161.634 170.804,169.378 171.187,167.400 171.634 C 166.740 171.783,160.587 171.927,153.726 171.953 C 146.865 171.979,140.835 172.157,140.326 172.349 C 139.817 172.541,134.000 172.815,127.400 172.958 C 109.262 173.351,107.608 173.597,106.628 176.046 C 104.754 180.730,107.258 181.450,127.200 181.961 C 140.189 182.295,139.643 182.255,138.800 182.800 C 138.442 183.032,132.459 183.190,123.949 183.194 C 112.756 183.199,109.408 183.319,108.349 183.752 C 107.417 184.134,104.488 184.362,98.883 184.491 L 90.766 184.676 89.383 186.017 C 87.854 187.498,87.612 188.869,88.624 190.313 C 90.015 192.298,91.217 192.555,100.400 192.827 C 110.241 193.118,109.443 193.025,108.800 193.800 C 108.400 194.282,107.109 194.407,102.251 194.437 C 96.525 194.471,91.046 194.764,81.692 195.536 C 76.124 195.995,73.953 197.894,75.432 201.010 C 76.489 203.238,77.432 203.589,83.099 203.862 C 92.709 204.324,90.707 206.000,80.544 206.000 C 77.081 206.000,73.157 206.199,71.824 206.442 C 70.491 206.685,69.016 206.953,68.547 207.038 C 63.596 207.932,64.540 213.708,69.815 214.803 C 73.833 215.637,71.153 217.164,64.949 217.576 C 60.501 217.870,59.057 218.471,58.356 220.317 C 57.393 222.848,58.939 225.238,61.897 225.791 C 64.991 226.369,64.927 227.568,61.800 227.608 C 60.920 227.619,59.750 227.886,59.200 228.200 C 58.650 228.514,57.612 228.778,56.894 228.786 C 51.895 228.840,51.159 235.496,56.007 236.802 C 58.908 237.583,59.036 239.173,56.200 239.199 C 48.472 239.269,45.525 246.151,52.200 248.540 C 53.013 248.831,51.078 250.350,49.570 250.605 C 45.748 251.251,44.273 255.261,46.800 258.139 C 48.185 259.716,48.325 260.643,47.231 260.990 C 43.644 262.129,42.378 266.988,44.862 270.084 L 45.732 271.167 44.097 272.941 C 42.128 275.078,41.638 277.277,42.438 280.398 C 42.869 282.081,42.869 282.662,42.434 283.719 C 41.195 286.734,41.029 289.942,41.992 292.267 C 42.775 294.155,42.832 294.650,42.444 296.191 C 41.607 299.517,42.200 302.318,44.121 304.113 L 45.362 305.272 44.281 307.195 C 42.341 310.646,43.438 313.886,47.058 315.398 C 48.736 316.099,48.731 316.337,47.000 318.119 C 44.142 321.062,45.327 325.033,49.419 326.223 C 52.013 326.977,52.401 327.448,51.143 328.313 C 46.450 331.543,47.488 336.607,53.000 337.369 C 56.949 337.915,57.464 338.599,54.822 339.790 C 48.611 342.591,51.007 347.903,58.762 348.526 C 63.109 348.875,63.181 350.062,58.911 350.981 C 55.297 351.759,54.056 355.313,56.614 357.559 C 57.392 358.241,58.067 358.800,58.114 358.801 C 59.036 358.806,65.043 360.083,65.284 360.324 C 65.781 360.821,64.434 361.795,62.481 362.353 C 59.912 363.086,58.468 365.885,59.584 367.970 C 60.321 369.347,62.020 370.051,65.461 370.406 C 70.988 370.977,71.505 372.353,66.600 373.438 C 59.829 374.935,62.773 380.900,70.608 381.561 C 73.997 381.847,75.600 382.369,75.600 383.185 C 75.600 383.343,74.295 383.703,72.700 383.984 C 67.928 384.828,66.485 385.996,66.977 388.618 C 67.289 390.283,69.127 391.884,71.112 392.221 C 71.930 392.360,73.230 392.636,74.000 392.834 C 74.770 393.033,76.154 393.197,77.076 393.198 C 80.736 393.203,79.149 394.864,75.133 395.232 C 68.132 395.874,67.867 402.352,74.800 403.375 C 77.217 403.732,81.200 404.884,81.200 405.227 C 81.200 405.708,79.076 406.335,76.824 406.519 C 70.207 407.060,71.334 413.850,78.162 414.581 C 83.316 415.133,83.775 416.560,79.120 417.559 C 71.487 419.197,73.758 425.294,82.361 426.258 C 86.282 426.697,86.580 427.747,82.905 428.176 C 73.520 429.272,74.433 437.600,83.938 437.600 C 86.477 437.600,85.137 439.024,82.221 439.425 C 74.575 440.476,76.330 447.739,84.528 448.968 C 86.915 449.326,86.653 449.767,83.710 450.348 C 75.552 451.957,75.790 457.277,84.135 459.837 L 86.470 460.554 84.135 461.203 C 76.984 463.191,76.016 467.688,82.200 470.189 C 84.833 471.253,85.252 472.032,83.400 472.417 C 77.234 473.699,76.512 478.775,82.121 481.408 C 84.458 482.505,84.422 482.644,81.400 484.180 C 76.886 486.475,77.059 490.228,81.786 492.537 L 84.172 493.703 81.515 495.042 C 76.358 497.642,76.142 501.275,81.008 503.562 C 83.049 504.521,83.023 504.866,80.823 505.988 C 76.289 508.301,76.027 512.652,80.298 514.717 C 82.193 515.633,82.132 516.018,79.896 517.225 C 75.639 519.524,75.717 524.841,80.028 526.209 C 81.153 526.566,80.843 527.161,78.776 528.617 C 75.110 531.198,74.853 533.919,78.034 536.475 C 80.019 538.070,79.998 538.366,77.791 539.921 C 74.876 541.976,74.458 544.756,76.737 546.939 L 77.863 548.019 85.226 547.909 C 93.582 547.785,94.371 547.451,91.225 545.369 C 89.092 543.957,89.145 543.817,92.189 542.804 C 97.888 540.907,98.567 535.416,93.300 533.819 C 92.053 533.441,92.172 532.464,93.500 532.180 C 100.943 530.587,102.795 526.210,97.331 523.126 C 94.992 521.806,95.037 520.800,97.434 520.800 C 104.808 520.800,107.399 514.222,100.989 511.774 C 100.005 511.399,99.200 510.953,99.200 510.783 C 99.200 510.398,102.653 509.201,103.771 509.198 C 110.536 509.180,112.209 502.372,105.842 500.769 C 102.257 499.866,103.214 499.216,109.954 497.974 C 115.134 497.019,116.400 496.202,116.400 493.813 C 116.400 491.335,114.173 489.600,110.994 489.600 C 107.161 489.600,106.625 488.205,110.306 487.810 C 120.771 486.687,122.638 486.241,123.969 484.549 C 126.392 481.468,123.194 478.400,117.560 478.400 C 115.326 478.400,114.400 478.107,114.400 477.400 C 114.400 476.536,115.515 476.359,123.400 475.971 C 127.580 475.766,131.636 475.423,132.414 475.208 C 136.899 473.974,136.700 468.513,132.145 467.817 C 131.295 467.688,129.731 467.406,128.669 467.191 C 127.608 466.976,126.033 466.800,125.169 466.800 C 123.343 466.800,123.125 466.278,124.700 465.679 C 125.884 465.228,133.881 464.701,141.000 464.604 C 147.915 464.511,150.800 463.273,150.800 460.400 C 150.800 457.564,148.454 456.502,142.028 456.429 C 139.620 456.402,136.800 455.739,136.800 455.200 C 136.800 454.460,140.316 454.015,147.800 453.807 C 152.420 453.679,158.935 453.500,162.277 453.409 C 169.836 453.204,172.026 452.258,171.987 449.211 C 171.949 446.129,170.235 445.566,160.118 445.312 C 153.921 445.156,151.088 444.934,150.320 444.546 C 149.726 444.246,148.826 443.982,148.320 443.959 C 147.608 443.927,147.686 443.850,148.668 443.616 C 149.920 443.318,166.769 442.785,180.400 442.612 C 188.555 442.508,197.140 441.932,198.000 441.431 C 200.519 439.962,201.019 438.178,199.458 436.228 C 198.189 434.642,196.375 434.407,182.800 434.072 C 172.466 433.816,170.800 433.643,170.800 432.819 C 170.800 431.937,173.998 431.788,198.400 431.537 C 231.386 431.199,233.478 431.025,234.419 428.550 C 235.743 425.068,233.840 423.600,228.004 423.600 C 225.171 423.600,223.229 423.418,222.674 423.100 C 222.089 422.765,219.947 422.600,216.200 422.600 C 197.526 422.600,192.740 422.327,193.745 421.322 C 193.922 421.145,200.126 420.946,207.533 420.879 C 265.597 420.358,269.567 420.075,269.927 416.432 C 270.256 413.105,268.344 412.410,258.800 412.388 C 253.489 412.376,251.559 412.234,250.800 411.800 C 250.130 411.417,248.533 411.224,245.964 411.214 C 243.854 411.206,238.814 411.074,234.764 410.919 C 223.088 410.474,228.721 410.117,251.820 409.838 C 294.605 409.322,298.808 408.892,298.794 405.038 C 298.779 401.106,297.293 400.805,274.332 400.084 C 256.845 399.536,264.150 398.753,287.600 398.662 C 297.609 398.623,304.029 398.446,304.400 398.199 C 304.730 397.980,307.970 397.706,311.600 397.592 C 318.780 397.366,319.674 397.111,320.379 395.089 C 321.727 391.221,319.160 389.802,310.200 389.463 C 304.722 389.257,303.200 389.027,303.200 388.407 C 303.200 387.764,306.145 387.498,316.800 387.178 C 333.859 386.665,335.670 386.261,335.920 382.913 C 336.063 381.008,334.357 379.200,332.418 379.200 C 331.802 379.200,330.651 378.930,329.862 378.600 C 328.878 378.189,326.941 377.991,323.713 377.972 C 314.818 377.919,315.455 377.197,324.800 376.739 C 341.758 375.908,343.421 375.782,344.400 375.247 C 351.148 371.558,346.177 366.800,335.575 366.800 C 332.255 366.800,330.815 366.387,332.235 365.842 C 332.582 365.709,335.563 365.600,338.859 365.600 C 342.155 365.600,345.192 365.418,345.608 365.196 C 346.023 364.973,347.496 364.687,348.882 364.560 C 357.921 363.727,358.027 356.070,349.000 356.003 C 343.861 355.964,345.544 354.701,351.200 354.350 C 358.660 353.889,361.600 352.446,361.600 349.247 C 361.600 346.673,358.435 344.661,354.522 344.749 C 353.379 344.774,352.334 344.616,352.199 344.398 C 352.045 344.150,352.923 344.000,354.528 344.000 C 355.944 344.000,357.749 343.730,358.538 343.400 C 359.328 343.070,360.463 342.800,361.061 342.800 C 367.092 342.800,368.451 336.723,363.050 333.904 C 361.721 333.210,361.555 333.013,362.200 332.889 C 370.007 331.391,372.973 326.305,367.815 323.262 C 366.115 322.259,366.023 321.704,367.500 321.356 C 370.676 320.608,372.802 318.354,372.799 315.740 C 372.797 314.503,371.463 312.000,370.806 312.000 C 369.863 312.000,370.514 310.736,371.943 309.790 C 374.435 308.141,375.217 304.541,373.752 301.467 C 373.120 300.143,373.133 300.056,374.252 298.154 C 375.275 296.412,375.388 295.885,375.286 293.300 C 375.090 288.286,375.111 286.665,375.406 284.345 C 375.750 281.631,375.169 279.576,373.663 278.174 L 372.600 277.185 373.500 275.613 C 375.244 272.567,374.681 269.619,371.885 267.151 L 370.243 265.702 371.322 264.420 C 373.985 261.254,372.654 256.938,368.600 255.600 C 366.821 255.013,366.843 254.721,368.800 252.952 C 372.211 249.871,370.427 246.048,364.935 244.670 C 362.567 244.076,362.420 243.606,364.289 242.600 C 369.927 239.566,367.457 234.389,359.900 233.400 C 357.470 233.082,357.511 232.807,360.182 231.496 C 366.524 228.386,363.703 222.432,355.869 222.394 C 354.659 222.388,353.213 221.811,353.612 221.493 C 353.715 221.411,354.872 220.890,356.183 220.336 C 362.020 217.871,360.227 211.659,353.655 211.577 C 349.237 211.522,347.285 210.550,350.198 209.855 C 358.536 207.866,356.984 200.414,348.228 200.395 C 342.793 200.382,342.542 199.484,347.600 198.142 C 354.987 196.182,353.120 190.372,344.797 189.419 C 341.203 189.007,340.697 187.632,343.900 186.983 C 344.395 186.882,345.266 186.703,345.834 186.584 C 347.389 186.259,348.800 184.645,348.800 183.192 C 348.800 180.197,346.858 178.970,341.290 178.447 C 339.056 178.236,337.038 177.947,336.807 177.805 C 336.128 177.385,336.761 176.800,337.895 176.800 C 339.562 176.800,343.866 175.194,344.766 174.236 C 348.292 170.483,344.266 167.250,336.000 167.197 C 335.230 167.192,334.330 167.007,334.000 166.786 C 333.139 166.210,334.542 165.200,336.204 165.200 C 339.971 165.200,343.200 163.132,343.200 160.720 C 343.200 158.108,341.705 157.062,336.717 156.185 C 332.036 155.362,332.067 154.378,336.800 153.633 C 343.531 152.574,343.239 146.640,336.393 145.346 C 331.955 144.507,331.768 143.214,335.990 142.560 C 341.316 141.734,341.325 134.400,336.000 134.400 C 334.831 134.400,332.718 133.247,332.898 132.707 C 332.980 132.461,333.948 131.954,335.050 131.580 C 341.237 129.476,341.127 124.493,334.864 123.159 C 330.758 122.285,330.614 121.266,334.480 120.439 C 340.987 119.048,340.412 113.480,333.550 111.433 C 331.134 110.712,331.492 109.881,334.419 109.419 C 339.782 108.570,340.072 103.431,334.899 100.898 C 332.387 99.668,332.410 99.238,335.033 98.288 C 340.182 96.422,340.382 92.211,335.433 89.867 C 332.801 88.621,332.420 88.104,333.884 87.764 C 340.367 86.260,341.112 81.354,335.300 78.437 C 333.223 77.395,333.156 76.919,335.037 76.567 C 340.273 75.584,341.005 69.960,336.232 67.389 C 334.455 66.432,334.416 65.790,336.100 65.230 C 340.665 63.713,341.395 58.920,337.404 56.670 C 335.352 55.512,335.269 54.994,337.005 54.171 C 341.510 52.033,342.025 48.345,338.224 45.445 C 336.409 44.061,336.431 43.892,338.593 42.625 C 342.217 40.502,342.268 36.462,338.700 34.204 C 337.214 33.264,337.288 33.022,339.576 31.379 C 342.947 28.957,343.148 26.242,340.151 23.610 C 338.440 22.108,338.425 22.191,340.800 19.926 C 343.534 17.318,343.650 15.219,341.200 12.667 C 340.320 11.750,339.345 10.640,339.033 10.200 C 338.404 9.313,329.924 8.826,328.156 9.575 M268.500 138.282 C 268.005 138.378,267.195 138.378,266.700 138.282 C 266.205 138.187,266.610 138.109,267.600 138.109 C 268.590 138.109,268.995 138.187,268.500 138.282 M205.004 171.593 C 204.764 171.982,176.043 171.776,175.650 171.383 C 175.549 171.282,182.167 171.200,190.357 171.200 C 200.016 171.200,205.162 171.338,205.004 171.593 M226.000 219.391 C 233.150 219.704,241.430 220.237,244.400 220.575 C 247.370 220.913,251.600 221.394,253.800 221.643 C 258.778 222.206,276.430 225.661,280.200 226.810 C 323.089 239.877,347.049 256.515,353.339 277.600 C 361.083 303.562,341.369 326.910,297.000 344.322 C 287.985 347.860,264.632 353.464,253.400 354.786 C 251.200 355.045,247.420 355.510,245.000 355.819 C 216.009 359.529,169.844 356.449,146.000 349.214 C 143.910 348.580,139.590 347.265,136.400 346.292 C 91.793 332.686,65.026 303.359,73.776 277.676 C 78.880 262.693,96.267 246.487,116.479 237.874 C 137.707 228.828,157.276 223.396,175.800 221.408 C 179.100 221.053,183.420 220.568,185.400 220.328 C 187.380 220.088,194.040 219.672,200.200 219.404 C 206.360 219.135,211.760 218.894,212.200 218.869 C 212.640 218.843,218.850 219.078,226.000 219.391 M175.260 277.885 C 179.218 277.993,180.433 278.158,180.835 278.642 C 181.693 279.676,180.568 279.987,175.949 279.994 C 170.893 280.001,170.613 280.190,170.613 283.600 C 170.613 286.951,170.948 287.200,175.462 287.200 C 178.543 287.200,179.270 287.316,179.471 287.840 C 179.864 288.865,178.834 289.187,175.149 289.194 C 170.847 289.202,170.708 289.342,170.483 293.929 C 170.296 297.738,170.009 298.409,168.917 297.585 C 168.230 297.067,168.230 297.076,168.908 297.815 C 170.291 299.323,170.985 298.182,171.117 294.179 C 171.265 289.696,171.351 289.600,175.223 289.600 C 178.661 289.600,180.400 289.138,180.400 288.224 C 180.400 287.211,178.988 286.800,175.506 286.800 C 171.546 286.800,171.200 286.558,171.200 283.796 C 171.200 280.603,171.468 280.434,176.757 280.309 C 180.559 280.218,181.387 280.086,181.748 279.511 C 182.624 278.120,181.513 277.802,175.681 277.774 L 170.200 277.748 175.260 277.885 M234.246 279.800 C 232.936 281.828,232.288 283.033,232.902 282.300 C 233.887 281.124,233.926 281.480,233.162 284.700 C 232.180 288.844,232.200 293.284,233.220 297.280 C 234.150 300.921,234.030 301.581,232.847 299.338 C 232.400 298.492,232.027 297.986,232.018 298.213 C 231.983 299.030,234.876 303.200,235.477 303.200 C 236.180 303.200,236.158 303.091,234.555 298.800 C 232.907 294.387,232.890 287.581,234.516 283.200 C 235.128 281.550,235.733 279.885,235.861 279.500 C 236.222 278.412,234.995 278.640,234.246 279.800 M255.200 278.949 C 255.200 279.030,255.647 280.065,256.194 281.249 C 256.881 282.738,257.119 283.031,256.966 282.200 C 256.752 281.034,256.764 281.023,257.412 281.800 C 260.306 285.270,260.816 293.283,258.457 298.200 C 257.405 300.392,257.053 300.838,256.835 300.254 C 256.610 299.650,256.429 299.834,255.883 301.225 C 254.750 304.110,256.113 303.910,258.015 300.912 C 262.047 294.558,261.767 286.024,257.332 280.100 C 256.541 279.043,255.200 278.319,255.200 278.949 M186.100 283.865 C 185.825 283.976,185.600 284.242,185.600 284.457 C 185.600 284.672,185.800 284.724,186.045 284.572 C 186.891 284.049,187.188 285.419,187.194 289.878 C 187.199 293.984,187.277 294.445,188.131 295.438 C 189.123 296.591,192.294 297.065,193.169 296.190 C 193.449 295.911,192.857 295.784,191.307 295.790 C 188.277 295.803,188.014 295.275,188.006 289.180 C 187.999 284.088,187.689 283.224,186.100 283.865 M195.067 283.867 C 194.562 284.371,194.797 284.900,195.330 284.458 C 196.504 283.484,196.800 284.811,196.800 291.056 C 196.800 297.649,196.689 297.982,194.762 297.184 C 193.775 296.775,193.318 296.800,192.086 297.331 C 191.269 297.682,190.150 298.042,189.600 298.131 C 188.923 298.239,189.091 298.309,190.120 298.346 C 190.956 298.375,192.171 298.125,192.820 297.790 C 193.887 297.238,194.122 297.243,195.271 297.837 C 197.334 298.903,197.600 298.132,197.600 291.097 C 197.600 284.356,196.816 282.118,195.067 283.867 M205.611 284.045 C 205.067 284.263,203.960 284.328,203.152 284.192 C 202.185 284.028,201.579 284.111,201.379 284.434 C 201.177 284.761,201.243 284.821,201.576 284.615 C 201.851 284.445,202.512 284.539,203.045 284.824 C 203.862 285.261,204.232 285.238,205.420 284.671 C 207.827 283.523,210.606 284.142,211.629 286.053 C 212.821 288.282,212.554 297.407,211.287 297.711 C 210.666 297.860,210.673 297.908,211.358 298.203 C 212.765 298.810,213.202 297.468,213.177 292.624 C 213.139 285.022,210.541 282.078,205.611 284.045 M220.421 283.979 C 220.042 284.218,220.406 284.269,221.474 284.126 C 223.568 283.845,225.852 284.602,226.668 285.848 C 227.453 287.046,227.068 287.544,225.882 286.865 C 225.031 286.378,225.032 286.388,225.920 287.160 C 227.703 288.711,228.853 286.917,227.100 285.320 C 225.274 283.657,221.976 282.995,220.421 283.979 M239.611 284.187 C 239.343 284.509,239.217 285.004,239.331 285.287 C 239.456 285.598,239.549 285.514,239.568 285.071 C 239.625 283.772,240.939 284.524,241.547 286.202 C 244.172 293.447,244.464 294.047,245.307 293.923 C 245.763 293.855,246.207 293.589,246.292 293.331 C 246.389 293.034,246.146 292.941,245.623 293.078 C 245.170 293.196,244.800 293.218,244.800 293.125 C 244.800 293.033,244.091 291.005,243.225 288.618 C 241.450 283.730,240.727 282.843,239.611 284.187 M250.000 284.000 C 249.495 284.326,249.518 284.389,250.147 284.394 C 251.116 284.402,251.033 284.739,248.225 292.200 C 244.383 302.408,243.486 303.901,241.433 303.508 C 240.878 303.402,240.519 303.470,240.636 303.658 C 241.426 304.937,244.321 303.319,245.563 300.904 C 246.678 298.737,251.639 285.099,251.526 284.514 C 251.368 283.699,250.775 283.500,250.000 284.000 M218.122 285.429 L 217.000 286.458 218.300 285.554 C 219.015 285.057,219.600 284.593,219.600 284.525 C 219.600 284.209,219.158 284.480,218.122 285.429 M204.858 285.834 C 203.323 286.926,202.800 288.791,202.800 293.167 C 202.800 296.548,202.693 297.223,202.100 297.568 C 201.467 297.937,201.482 297.977,202.253 297.988 C 203.368 298.004,203.588 297.102,203.595 292.480 C 203.602 287.074,204.629 285.591,208.018 286.088 C 209.676 286.331,208.938 285.723,207.200 285.413 C 206.212 285.237,205.523 285.361,204.858 285.834 M219.900 286.032 C 217.318 287.536,217.373 294.594,219.978 295.988 C 221.558 296.834,224.181 296.490,225.230 295.300 L 226.200 294.200 225.174 295.100 C 222.124 297.776,218.611 295.346,218.871 290.740 C 219.077 287.100,220.124 285.874,222.862 286.068 C 223.887 286.141,224.641 286.065,224.539 285.900 C 224.264 285.457,220.713 285.559,219.900 286.032 M210.548 293.200 C 210.548 295.510,210.614 296.455,210.695 295.300 C 210.776 294.145,210.776 292.255,210.695 291.100 C 210.614 289.945,210.548 290.890,210.548 293.200 M227.198 293.798 C 228.490 295.354,224.854 298.135,221.866 297.878 C 220.721 297.779,220.150 297.849,220.466 298.049 C 221.397 298.639,224.162 298.427,225.606 297.655 C 227.969 296.391,229.228 293.200,227.364 293.200 C 226.822 293.200,226.792 293.308,227.198 293.798 M217.567 296.145 C 218.100 296.801,219.600 297.793,219.600 297.489 C 219.600 297.413,219.015 296.922,218.300 296.399 C 217.496 295.810,217.216 295.713,217.567 296.145 M302.700 377.476 C 302.315 377.576,301.685 377.576,301.300 377.476 C 300.915 377.375,301.230 377.293,302.000 377.293 C 302.770 377.293,303.085 377.375,302.700 377.476 M301.600 388.400 C 300.784 388.928,291.474 388.928,291.800 388.400 C 291.944 388.167,294.164 388.003,297.124 388.006 C 300.549 388.010,302.005 388.138,301.600 388.400 M255.300 399.497 C 253.705 399.573,251.095 399.573,249.500 399.497 C 247.905 399.421,249.210 399.359,252.400 399.359 C 255.590 399.359,256.895 399.421,255.300 399.497 M215.513 410.693 C 214.476 410.776,212.676 410.776,211.513 410.695 C 210.351 410.614,211.200 410.547,213.400 410.546 C 215.600 410.545,216.551 410.611,215.513 410.693 " stroke="none" fill="#2d74b3" fill-rule="evenodd"></path><path id="path2" d="M0.000 276.200 L 0.000 552.400 200.000 552.400 L 400.000 552.400 400.000 276.200 L 400.000 0.000 200.000 0.000 L 0.000 0.000 0.000 276.200 M339.033 10.200 C 339.345 10.640,340.320 11.750,341.200 12.667 C 343.650 15.219,343.534 17.318,340.800 19.926 C 338.425 22.191,338.440 22.108,340.151 23.610 C 343.148 26.242,342.947 28.957,339.576 31.379 C 337.288 33.022,337.214 33.264,338.700 34.204 C 342.268 36.462,342.217 40.502,338.593 42.625 C 336.431 43.892,336.409 44.061,338.224 45.445 C 342.025 48.345,341.510 52.033,337.005 54.171 C 335.269 54.994,335.352 55.512,337.404 56.670 C 341.395 58.920,340.665 63.713,336.100 65.230 C 334.416 65.790,334.455 66.432,336.232 67.389 C 341.005 69.960,340.273 75.584,335.037 76.567 C 333.156 76.919,333.223 77.395,335.300 78.437 C 341.112 81.354,340.367 86.260,333.884 87.764 C 332.420 88.104,332.801 88.621,335.433 89.867 C 340.382 92.211,340.182 96.422,335.033 98.288 C 332.410 99.238,332.387 99.668,334.899 100.898 C 340.072 103.431,339.782 108.570,334.419 109.419 C 331.492 109.881,331.134 110.712,333.550 111.433 C 340.412 113.480,340.987 119.048,334.480 120.439 C 330.614 121.266,330.758 122.285,334.864 123.159 C 341.127 124.493,341.237 129.476,335.050 131.580 C 333.948 131.954,332.980 132.461,332.898 132.707 C 332.718 133.247,334.831 134.400,336.000 134.400 C 341.325 134.400,341.316 141.734,335.990 142.560 C 331.768 143.214,331.955 144.507,336.393 145.346 C 343.239 146.640,343.531 152.574,336.800 153.633 C 332.067 154.378,332.036 155.362,336.717 156.185 C 341.705 157.062,343.200 158.108,343.200 160.720 C 343.200 163.132,339.971 165.200,336.204 165.200 C 334.542 165.200,333.139 166.210,334.000 166.786 C 334.330 167.007,335.230 167.192,336.000 167.197 C 344.266 167.250,348.292 170.483,344.766 174.236 C 343.866 175.194,339.562 176.800,337.895 176.800 C 336.761 176.800,336.128 177.385,336.807 177.805 C 337.038 177.947,339.056 178.236,341.290 178.447 C 346.858 178.970,348.800 180.197,348.800 183.192 C 348.800 184.645,347.389 186.259,345.834 186.584 C 345.266 186.703,344.395 186.882,343.900 186.983 C 340.697 187.632,341.203 189.007,344.797 189.419 C 353.120 190.372,354.987 196.182,347.600 198.142 C 342.542 199.484,342.793 200.382,348.228 200.395 C 356.984 200.414,358.536 207.866,350.198 209.855 C 347.285 210.550,349.237 211.522,353.655 211.577 C 360.227 211.659,362.020 217.871,356.183 220.336 C 354.872 220.890,353.715 221.411,353.612 221.493 C 353.213 221.811,354.659 222.388,355.869 222.394 C 363.703 222.432,366.524 228.386,360.182 231.496 C 357.511 232.807,357.470 233.082,359.900 233.400 C 367.457 234.389,369.927 239.566,364.289 242.600 C 362.420 243.606,362.567 244.076,364.935 244.670 C 370.427 246.048,372.211 249.871,368.800 252.952 C 366.843 254.721,366.821 255.013,368.600 255.600 C 372.654 256.938,373.985 261.254,371.322 264.420 L 370.243 265.702 371.885 267.151 C 374.681 269.619,375.244 272.567,373.500 275.613 L 372.600 277.185 373.663 278.174 C 375.169 279.576,375.750 281.631,375.406 284.345 C 375.111 286.665,375.090 288.286,375.286 293.300 C 375.388 295.885,375.275 296.412,374.252 298.154 C 373.133 300.056,373.120 300.143,373.752 301.467 C 375.217 304.541,374.435 308.141,371.943 309.790 C 370.514 310.736,369.863 312.000,370.806 312.000 C 371.463 312.000,372.797 314.503,372.799 315.740 C 372.802 318.354,370.676 320.608,367.500 321.356 C 366.023 321.704,366.115 322.259,367.815 323.262 C 372.973 326.305,370.007 331.391,362.200 332.889 C 361.555 333.013,361.721 333.210,363.050 333.904 C 368.451 336.723,367.092 342.800,361.061 342.800 C 360.463 342.800,359.328 343.070,358.538 343.400 C 357.749 343.730,355.944 344.000,354.528 344.000 C 352.923 344.000,352.045 344.150,352.199 344.398 C 352.334 344.616,353.379 344.774,354.522 344.749 C 358.435 344.661,361.600 346.673,361.600 349.247 C 361.600 352.446,358.660 353.889,351.200 354.350 C 345.544 354.701,343.861 355.964,349.000 356.003 C 358.027 356.070,357.921 363.727,348.882 364.560 C 347.496 364.687,346.023 364.973,345.608 365.196 C 345.192 365.418,342.155 365.600,338.859 365.600 C 335.563 365.600,332.582 365.709,332.235 365.842 C 330.815 366.387,332.255 366.800,335.575 366.800 C 346.177 366.800,351.148 371.558,344.400 375.247 C 343.421 375.782,341.758 375.908,324.800 376.739 C 315.455 377.197,314.818 377.919,323.713 377.972 C 326.941 377.991,328.878 378.189,329.862 378.600 C 330.651 378.930,331.802 379.200,332.418 379.200 C 334.357 379.200,336.063 381.008,335.920 382.913 C 335.670 386.261,333.859 386.665,316.800 387.178 C 306.145 387.498,303.200 387.764,303.200 388.407 C 303.200 389.027,304.722 389.257,310.200 389.463 C 319.160 389.802,321.727 391.221,320.379 395.089 C 319.674 397.111,318.780 397.366,311.600 397.592 C 307.970 397.706,304.730 397.980,304.400 398.199 C 304.029 398.446,297.609 398.623,287.600 398.662 C 264.150 398.753,256.845 399.536,274.332 400.084 C 297.293 400.805,298.779 401.106,298.794 405.038 C 298.808 408.892,294.605 409.322,251.820 409.838 C 228.721 410.117,223.088 410.474,234.764 410.919 C 238.814 411.074,243.854 411.206,245.964 411.214 C 248.533 411.224,250.130 411.417,250.800 411.800 C 251.559 412.234,253.489 412.376,258.800 412.388 C 268.344 412.410,270.256 413.105,269.927 416.432 C 269.567 420.075,265.597 420.358,207.533 420.879 C 200.126 420.946,193.922 421.145,193.745 421.322 C 192.740 422.327,197.526 422.600,216.200 422.600 C 219.947 422.600,222.089 422.765,222.674 423.100 C 223.229 423.418,225.171 423.600,228.004 423.600 C 233.840 423.600,235.743 425.068,234.419 428.550 C 233.478 431.025,231.386 431.199,198.400 431.537 C 173.998 431.788,170.800 431.937,170.800 432.819 C 170.800 433.643,172.466 433.816,182.800 434.072 C 196.375 434.407,198.189 434.642,199.458 436.228 C 201.019 438.178,200.519 439.962,198.000 441.431 C 197.140 441.932,188.555 442.508,180.400 442.612 C 166.769 442.785,149.920 443.318,148.668 443.616 C 147.686 443.850,147.608 443.927,148.320 443.959 C 148.826 443.982,149.726 444.246,150.320 444.546 C 151.088 444.934,153.921 445.156,160.118 445.312 C 170.235 445.566,171.949 446.129,171.987 449.211 C 172.026 452.258,169.836 453.204,162.277 453.409 C 158.935 453.500,152.420 453.679,147.800 453.807 C 140.316 454.015,136.800 454.460,136.800 455.200 C 136.800 455.739,139.620 456.402,142.028 456.429 C 148.454 456.502,150.800 457.564,150.800 460.400 C 150.800 463.273,147.915 464.511,141.000 464.604 C 133.881 464.701,125.884 465.228,124.700 465.679 C 123.125 466.278,123.343 466.800,125.169 466.800 C 126.033 466.800,127.608 466.976,128.669 467.191 C 129.731 467.406,131.295 467.688,132.145 467.817 C 136.700 468.513,136.899 473.974,132.414 475.208 C 131.636 475.423,127.580 475.766,123.400 475.971 C 115.515 476.359,114.400 476.536,114.400 477.400 C 114.400 478.107,115.326 478.400,117.560 478.400 C 123.194 478.400,126.392 481.468,123.969 484.549 C 122.638 486.241,120.771 486.687,110.306 487.810 C 106.625 488.205,107.161 489.600,110.994 489.600 C 114.173 489.600,116.400 491.335,116.400 493.813 C 116.400 496.202,115.134 497.019,109.954 497.974 C 103.214 499.216,102.257 499.866,105.842 500.769 C 112.209 502.372,110.536 509.180,103.771 509.198 C 102.653 509.201,99.200 510.398,99.200 510.783 C 99.200 510.953,100.005 511.399,100.989 511.774 C 107.399 514.222,104.808 520.800,97.434 520.800 C 95.037 520.800,94.992 521.806,97.331 523.126 C 102.795 526.210,100.943 530.587,93.500 532.180 C 92.172 532.464,92.053 533.441,93.300 533.819 C 98.567 535.416,97.888 540.907,92.189 542.804 C 89.145 543.817,89.092 543.957,91.225 545.369 C 94.371 547.451,93.582 547.785,85.226 547.909 L 77.863 548.019 76.737 546.939 C 74.458 544.756,74.876 541.976,77.791 539.921 C 79.998 538.366,80.019 538.070,78.034 536.475 C 74.853 533.919,75.110 531.198,78.776 528.617 C 80.843 527.161,81.153 526.566,80.028 526.209 C 75.717 524.841,75.639 519.524,79.896 517.225 C 82.132 516.018,82.193 515.633,80.298 514.717 C 76.027 512.652,76.289 508.301,80.823 505.988 C 83.023 504.866,83.049 504.521,81.008 503.562 C 76.142 501.275,76.358 497.642,81.515 495.042 L 84.172 493.703 81.786 492.537 C 77.059 490.228,76.886 486.475,81.400 484.180 C 84.422 482.644,84.458 482.505,82.121 481.408 C 76.512 478.775,77.234 473.699,83.400 472.417 C 85.252 472.032,84.833 471.253,82.200 470.189 C 76.016 467.688,76.984 463.191,84.135 461.203 L 86.470 460.554 84.135 459.837 C 75.790 457.277,75.552 451.957,83.710 450.348 C 86.653 449.767,86.915 449.326,84.528 448.968 C 76.330 447.739,74.575 440.476,82.221 439.425 C 85.137 439.024,86.477 437.600,83.938 437.600 C 74.433 437.600,73.520 429.272,82.905 428.176 C 86.580 427.747,86.282 426.697,82.361 426.258 C 73.758 425.294,71.487 419.197,79.120 417.559 C 83.775 416.560,83.316 415.133,78.162 414.581 C 71.334 413.850,70.207 407.060,76.824 406.519 C 79.076 406.335,81.200 405.708,81.200 405.227 C 81.200 404.884,77.217 403.732,74.800 403.375 C 67.867 402.352,68.132 395.874,75.133 395.232 C 79.149 394.864,80.736 393.203,77.076 393.198 C 76.154 393.197,74.770 393.033,74.000 392.834 C 73.230 392.636,71.930 392.360,71.112 392.221 C 69.127 391.884,67.289 390.283,66.977 388.618 C 66.485 385.996,67.928 384.828,72.700 383.984 C 74.295 383.703,75.600 383.343,75.600 383.185 C 75.600 382.369,73.997 381.847,70.608 381.561 C 62.773 380.900,59.829 374.935,66.600 373.438 C 71.505 372.353,70.988 370.977,65.461 370.406 C 62.020 370.051,60.321 369.347,59.584 367.970 C 58.468 365.885,59.912 363.086,62.481 362.353 C 64.434 361.795,65.781 360.821,65.284 360.324 C 65.043 360.083,59.036 358.806,58.114 358.801 C 58.067 358.800,57.392 358.241,56.614 357.559 C 54.056 355.313,55.297 351.759,58.911 350.981 C 63.181 350.062,63.109 348.875,58.762 348.526 C 51.007 347.903,48.611 342.591,54.822 339.790 C 57.464 338.599,56.949 337.915,53.000 337.369 C 47.488 336.607,46.450 331.543,51.143 328.313 C 52.401 327.448,52.013 326.977,49.419 326.223 C 45.327 325.033,44.142 321.062,47.000 318.119 C 48.731 316.337,48.736 316.099,47.058 315.398 C 43.438 313.886,42.341 310.646,44.281 307.195 L 45.362 305.272 44.121 304.113 C 42.200 302.318,41.607 299.517,42.444 296.191 C 42.832 294.650,42.775 294.155,41.992 292.267 C 41.029 289.942,41.195 286.734,42.434 283.719 C 42.869 282.662,42.869 282.081,42.438 280.398 C 41.638 277.277,42.128 275.078,44.097 272.941 L 45.732 271.167 44.862 270.084 C 42.378 266.988,43.644 262.129,47.231 260.990 C 48.325 260.643,48.185 259.716,46.800 258.139 C 44.273 255.261,45.748 251.251,49.570 250.605 C 51.078 250.350,53.013 248.831,52.200 248.540 C 45.525 246.151,48.472 239.269,56.200 239.199 C 59.036 239.173,58.908 237.583,56.007 236.802 C 51.159 235.496,51.895 228.840,56.894 228.786 C 57.612 228.778,58.650 228.514,59.200 228.200 C 59.750 227.886,60.920 227.619,61.800 227.608 C 64.927 227.568,64.991 226.369,61.897 225.791 C 58.939 225.238,57.393 222.848,58.356 220.317 C 59.057 218.471,60.501 217.870,64.949 217.576 C 71.153 217.164,73.833 215.637,69.815 214.803 C 64.540 213.708,63.596 207.932,68.547 207.038 C 69.016 206.953,70.491 206.685,71.824 206.442 C 73.157 206.199,77.081 206.000,80.544 206.000 C 90.707 206.000,92.709 204.324,83.099 203.862 C 77.432 203.589,76.489 203.238,75.432 201.010 C 73.953 197.894,76.124 195.995,81.692 195.536 C 91.046 194.764,96.525 194.471,102.251 194.437 C 107.109 194.407,108.400 194.282,108.800 193.800 C 109.443 193.025,110.241 193.118,100.400 192.827 C 91.217 192.555,90.015 192.298,88.624 190.313 C 87.612 188.869,87.854 187.498,89.383 186.017 L 90.766 184.676 98.883 184.491 C 104.488 184.362,107.417 184.134,108.349 183.752 C 109.408 183.319,112.756 183.199,123.949 183.194 C 132.459 183.190,138.442 183.032,138.800 182.800 C 139.643 182.255,140.189 182.295,127.200 181.961 C 107.258 181.450,104.754 180.730,106.628 176.046 C 107.608 173.597,109.262 173.351,127.400 172.958 C 134.000 172.815,139.817 172.541,140.326 172.349 C 140.835 172.157,146.865 171.979,153.726 171.953 C 160.587 171.927,166.740 171.783,167.400 171.634 C 169.378 171.187,161.634 170.804,150.549 170.802 C 142.523 170.800,140.208 170.679,139.062 170.200 C 138.272 169.870,136.706 169.600,135.582 169.600 C 130.029 169.600,130.151 162.891,135.706 162.760 C 136.638 162.738,139.740 162.550,142.600 162.342 C 145.460 162.134,158.780 161.821,172.200 161.646 C 197.267 161.320,200.204 161.129,198.700 159.920 C 198.645 159.875,192.030 159.730,184.000 159.596 C 168.359 159.336,166.031 159.025,164.550 156.999 C 162.715 154.490,164.987 151.626,168.869 151.552 C 170.261 151.526,175.450 151.342,180.400 151.144 C 192.299 150.669,228.820 149.883,235.400 149.961 C 240.999 150.028,242.967 149.797,241.984 149.190 C 241.668 148.995,239.158 148.937,236.405 149.062 C 232.559 149.237,230.769 149.140,228.675 148.645 C 226.508 148.132,223.659 148.000,214.759 148.000 C 202.426 148.000,201.155 147.776,200.079 145.413 C 198.119 141.113,201.521 140.012,216.800 140.003 C 222.850 139.999,228.430 139.827,229.200 139.621 C 229.970 139.415,237.037 139.174,244.904 139.085 C 258.201 138.936,260.145 138.811,259.484 138.150 C 259.194 137.860,251.055 137.283,241.581 136.881 C 234.323 136.573,233.381 136.283,232.198 133.996 C 230.835 131.361,232.649 129.808,237.768 129.226 C 239.668 129.010,241.352 128.755,241.511 128.658 C 241.670 128.562,249.900 128.356,259.800 128.202 C 280.276 127.882,285.235 127.260,272.000 126.671 C 267.326 126.463,264.044 126.131,263.092 125.771 C 262.262 125.457,260.883 125.200,260.027 125.200 C 255.009 125.200,255.613 118.851,260.693 118.211 C 261.742 118.078,263.251 117.797,264.046 117.585 C 264.842 117.373,269.522 117.189,274.446 117.176 C 282.955 117.153,286.860 116.874,287.492 116.241 C 288.005 115.728,286.636 115.212,284.744 115.206 C 282.368 115.198,276.361 114.065,275.674 113.495 C 274.415 112.451,273.945 110.866,274.549 109.699 C 275.947 106.994,278.015 106.483,288.800 106.174 C 296.866 105.943,298.400 105.763,298.400 105.046 C 298.400 104.188,296.515 103.600,293.768 103.600 C 284.496 103.600,285.049 96.111,294.374 95.398 C 297.746 95.140,301.908 94.609,304.133 94.154 C 305.805 93.811,304.328 92.876,301.348 92.392 C 295.464 91.434,295.080 85.331,300.858 84.592 C 301.596 84.497,303.809 84.212,305.776 83.958 C 307.742 83.704,309.985 83.231,310.760 82.907 L 312.169 82.319 311.185 81.773 C 310.643 81.474,309.516 81.222,308.680 81.214 C 305.996 81.189,304.000 79.507,304.000 77.270 C 304.000 75.166,307.075 73.310,311.357 72.830 C 314.921 72.430,317.867 70.819,315.076 70.796 C 313.484 70.783,310.465 68.808,310.032 67.496 C 309.067 64.572,311.077 62.753,316.440 61.696 C 320.350 60.926,321.455 59.228,318.060 59.206 C 316.630 59.197,314.400 56.762,314.400 55.209 C 314.400 53.225,316.032 51.927,320.126 50.654 C 323.840 49.499,324.324 48.895,322.056 48.245 C 316.880 46.760,317.450 41.838,323.045 39.708 C 326.791 38.282,326.936 38.020,324.601 36.885 C 320.397 34.843,320.811 31.278,325.522 28.958 C 329.110 27.192,329.160 27.086,327.084 25.658 C 325.155 24.330,324.800 23.760,324.800 21.986 C 324.800 20.043,325.552 19.032,327.922 17.792 C 330.723 16.326,330.908 15.643,328.869 14.293 C 326.635 12.814,326.266 10.376,328.156 9.575 C 329.924 8.826,338.404 9.313,339.033 10.200 M266.700 138.282 C 267.195 138.378,268.005 138.378,268.500 138.282 C 268.995 138.187,268.590 138.109,267.600 138.109 C 266.610 138.109,266.205 138.187,266.700 138.282 M175.650 171.383 C 176.043 171.776,204.764 171.982,205.004 171.593 C 205.162 171.338,200.016 171.200,190.357 171.200 C 182.167 171.200,175.549 171.282,175.650 171.383 M169.029 278.629 C 168.097 279.560,168.087 296.842,169.017 297.614 C 169.996 298.427,170.300 297.664,170.483 293.929 C 170.708 289.342,170.847 289.202,175.149 289.194 C 178.834 289.187,179.864 288.865,179.471 287.840 C 179.270 287.316,178.543 287.200,175.462 287.200 C 170.948 287.200,170.613 286.951,170.613 283.600 C 170.613 280.190,170.893 280.001,175.949 279.994 C 180.586 279.987,181.694 279.677,180.825 278.630 C 180.057 277.704,169.955 277.703,169.029 278.629 M256.969 282.000 C 258.647 289.352,258.755 293.413,257.394 297.928 C 256.412 301.184,256.951 301.322,258.453 298.200 C 260.817 293.286,260.307 285.262,257.410 281.800 C 256.753 281.014,256.745 281.018,256.969 282.000 M232.239 283.700 C 229.894 288.529,229.951 293.157,232.421 298.379 C 233.974 301.662,234.244 301.289,233.220 297.280 C 232.200 293.284,232.180 288.844,233.162 284.700 C 234.017 281.094,233.681 280.730,232.239 283.700 M195.270 284.490 C 194.971 284.789,194.800 286.459,194.800 289.096 C 194.800 295.262,193.529 297.246,190.027 296.545 C 187.713 296.083,187.201 294.872,187.194 289.846 C 187.188 285.417,186.890 284.050,186.045 284.572 C 185.755 284.751,185.600 286.668,185.600 290.064 L 185.600 295.280 186.960 296.640 C 188.511 298.191,190.058 298.404,192.100 297.348 C 193.146 296.808,193.583 296.778,194.677 297.174 C 196.718 297.911,196.800 297.674,196.800 291.025 C 196.800 284.745,196.461 283.299,195.270 284.490 M205.305 284.696 C 204.216 285.238,203.856 285.258,203.043 284.823 C 201.348 283.916,201.200 284.433,201.200 291.253 C 201.200 297.138,201.257 297.648,201.900 297.525 C 202.504 297.410,202.627 296.760,202.800 292.777 C 203.069 286.569,204.336 284.642,207.596 285.487 C 210.026 286.117,210.581 287.410,210.742 292.829 C 210.851 296.496,211.009 297.600,211.424 297.600 C 212.563 297.600,212.731 288.113,211.629 286.053 C 210.608 284.146,207.675 283.516,205.305 284.696 M219.800 284.629 C 213.643 287.831,215.617 298.006,222.394 297.999 C 224.895 297.996,228.398 295.038,227.254 293.894 C 226.902 293.542,226.495 293.787,225.566 294.915 C 222.559 298.562,218.000 296.203,218.000 291.000 C 218.000 286.288,221.884 283.806,225.200 286.400 C 226.159 287.150,227.200 287.449,227.200 286.974 C 227.200 284.694,222.524 283.212,219.800 284.629 M239.600 285.040 C 239.600 285.424,240.590 288.310,241.800 291.453 C 244.674 298.919,244.665 300.629,241.740 301.851 C 240.218 302.487,240.133 303.323,241.570 303.533 C 243.515 303.818,244.455 302.217,248.225 292.200 C 250.951 284.957,251.098 284.400,250.276 284.400 C 249.870 284.400,249.230 285.531,248.409 287.700 C 247.721 289.515,246.919 291.630,246.627 292.400 C 245.379 295.680,244.665 294.809,241.547 286.202 C 240.951 284.556,239.600 283.749,239.600 285.040 M301.300 377.476 C 301.685 377.576,302.315 377.576,302.700 377.476 C 303.085 377.375,302.770 377.293,302.000 377.293 C 301.230 377.293,300.915 377.375,301.300 377.476 M291.800 388.400 C 291.474 388.928,300.784 388.928,301.600 388.400 C 302.005 388.138,300.549 388.010,297.124 388.006 C 294.164 388.003,291.944 388.167,291.800 388.400 M249.500 399.497 C 251.095 399.573,253.705 399.573,255.300 399.497 C 256.895 399.421,255.590 399.359,252.400 399.359 C 249.210 399.359,247.905 399.421,249.500 399.497 M211.513 410.695 C 212.676 410.776,214.476 410.776,215.513 410.693 C 216.551 410.611,215.600 410.545,213.400 410.546 C 211.200 410.547,210.351 410.614,211.513 410.695 " stroke="none" fill="#040404" fill-rule="evenodd"></path></g></svg>